<?xml version="1.0" encoding="UTF-8" standalone="no"?>
<svg
   version="1.1"
   width="170"
   height="80"
   style="fill:none"
   id="svg8"
   sodipodi:docname="2D_text.svg"
   inkscape:version="1.1 (c68e22c387, 2021-05-23)"
   xmlns:inkscape="http://www.inkscape.org/namespaces/inkscape"
   xmlns:sodipodi="http://sodipodi.sourceforge.net/DTD/sodipodi-0.dtd"
   xmlns="http://www.w3.org/2000/svg"
   xmlns:svg="http://www.w3.org/2000/svg">
  <defs
     id="defs12" />
  <sodipodi:namedview
     id="namedview10"
     pagecolor="#ffffff"
     bordercolor="#999999"
     borderopacity="1"
     inkscape:pageshadow="0"
     inkscape:pageopacity="0"
     inkscape:pagecheckerboard="0"
     showgrid="false"
     fit-margin-top="0"
     fit-margin-left="0"
     fit-margin-right="0"
     fit-margin-bottom="0"
     inkscape:zoom="1.0304527"
     inkscape:cx="182.92931"
     inkscape:cy="-35.421326"
     inkscape:window-width="1920"
     inkscape:window-height="1001"
     inkscape:window-x="-9"
     inkscape:window-y="41"
     inkscape:window-maximized="1"
     inkscape:current-layer="svg8" />
  <path
     d=""
     style="fill:none;stroke:#6a6a6a;stroke-width:15;stroke-linecap:round;stroke-linejoin:round"
     id="path2" />
  <path
     d=""
     style="fill:none;stroke:#4a4a4a;stroke-width:15;stroke-linecap:round;stroke-linejoin:round"
     id="path4" />
  <path
     style="fill:none;stroke:#0a0a0a;stroke-width:20;stroke-linecap:square;stroke-linejoin:miter"
     d="M 160,40 V 40 10"
     id="path855" />
  <path
     style="fill:none;stroke:#0a0a0a;stroke-width:20;stroke-linecap:square;stroke-linejoin:miter"
     d="m 100,70 v 0 -30 h 60 v 30 h -60"
     id="path853" />
  <path
     style="fill:none;stroke:#0a0a0a;stroke-width:20;stroke-linecap:square;stroke-linejoin:miter"
     d="m 10,10 v 0 H 70 V 40 H 10 v 30 h 60"
     id="path851" />
  <path
     style="fill:none;stroke:#0a0a0a;stroke-width:20;stroke-linecap:square;stroke-linejoin:miter"
     d="m -95,160 v 0 -60 h 60 v 60 h -60"
     id="path849" />
  <path
     style="fill:none;stroke:#0a0a0a;stroke-width:20;stroke-linecap:square;stroke-linejoin:miter"
     d="m -185,100 v 0 h 60 v 30 h -60 v 30 h 60"
     id="path847" />
  <path
     style="fill:none;stroke:#0a0a0a;stroke-width:20;stroke-linecap:square;stroke-linejoin:miter"
     d="m -95,10 v 0 h 60 v 30 h -60 v 30 h 60"
     id="path845" />
  <path
     style="fill:none;stroke:#0a0a0a;stroke-width:20;stroke-linecap:square;stroke-linejoin:miter"
     d="m -185,10 v 0 h 60 v 30 h -60 v 30 h 60"
     id="path843" />
  <path
     style="fill:none;stroke:#0a0a0a;stroke-width:20;stroke-linecap:square;stroke-linejoin:miter"
     d="m -65,-80 v 0 60"
     id="path841" />
  <path
     style="fill:none;stroke:#0a0a0a;stroke-width:20;stroke-linecap:square;stroke-linejoin:miter"
     d="m -185,-80 v 0 h 60 v 30 h -60 v 30 h 60"
     id="path839" />
  <path
     style="fill:none;stroke:#0a0a0a;stroke-width:20;stroke-linecap:square;stroke-linejoin:miter"
     d="m 10,-170 v 0 H -5 l 30,60 30,-60 H 40"
     id="path837" />
  <path
     style="fill:none;stroke:#0a0a0a;stroke-width:20;stroke-linecap:square;stroke-linejoin:miter"
     d="m -125,-170 v 0 h -60 v 0 0 60 h 60"
     id="path835" />
  <path
     style="fill:none;stroke:#0a0a0a;stroke-width:20;stroke-linecap:square;stroke-linejoin:miter"
     d="m 175,-170 v 0 h 60 v 60 h -60"
     id="path833" />
  <path
     style="fill:none;stroke:#0a0a0a;stroke-width:20;stroke-linecap:square;stroke-linejoin:miter"
     d="m 85,-170 v 0 60 h 60 v -60"
     id="path831" />
  <path
     style="fill:none;stroke:#0a0a0a;stroke-width:20;stroke-linecap:square;stroke-linejoin:miter"
     d="m -95,-170 v 0 60 h 60 v -60"
     id="path6" />
</svg>
