<svg xmlns="http://www.w3.org/2000/svg" baseProfile="full" version="1.1" width="1215px" height="630px" style="fill: none; width: 1215px; height: 630px;"><path d="" style="stroke-width: 15; stroke-linecap: round; stroke-linejoin: round; stroke: rgb(106, 106, 106); fill: none;"/><path d="" style="stroke-width: 15; stroke-linecap: round; stroke-linejoin: round; stroke: rgb(74, 74, 74); fill: none;"/><path d="M330,180 L330,180 L330,240 L390,240 L390,180 M510,180 L510,180 L510,240 L570,240 L570,180 M600,180 L600,180 L660,180 L660,240 L600,240 M300,180 L300,180 L240,180 L240,180 L240,180 L240,240 L300,240 M435,180 L435,180 L420,180 L450,240 L480,180 L465,180 M240,270 L240,270 L300,270 L300,300 L240,300 L240,330 L300,330 M360,270 L360,270 L360,330 M240,360 L240,360 L300,360 L300,390 L240,390 L240,420 L300,420 M330,360 L330,360 L390,360 L390,390 L330,390 L330,420 L390,420 M240,450 L240,450 L300,450 L300,480 L240,480 L240,510 L300,510 M330,510 L330,510 L330,450 L390,450 L390,510 L330,510 M435,360 L435,360 L495,360 L495,390 L435,390 L435,420 L495,420 M525,420 L525,420 L525,390 L585,390 L585,420 L525,420 M585,390 L585,390 L585,360 " style="stroke-width: 20; stroke-linecap: square; stroke-linejoin: miter; stroke: rgb(10, 10, 10); fill: none;"/></svg>